<svg width="48" height="48" viewBox="0 0 48 48" fill="none" xmlns="http://www.w3.org/2000/svg">
<g clip-path="url(#clip0_11_337)">
<path d="M48 48H0V0H48V48ZM24 7C14.615 7 7 14.615 7 24C7 33.385 14.615 41 24 41C33.3666 41 41 33.385 41 24C41 14.615 33.3666 7 24 7ZM26.5811 26.3604C28.6276 31.6521 29.4575 36.0959 29.6787 37.3682C27.9272 38.124 26.0096 38.5293 24 38.5293C20.6444 38.5293 17.547 37.3862 15.0947 35.4688C15.3529 34.9341 18.3027 29.2544 26.4893 26.3965C26.5258 26.3783 26.5445 26.3786 26.5811 26.3604ZM29.2734 25.6963C33.8266 24.9774 37.8083 26.1569 38.3076 26.3232C37.6807 30.361 35.3581 33.8459 32.0947 36.04C31.9472 35.1549 31.1725 30.9142 29.2734 25.6963ZM24.3867 21.5107C24.8108 22.322 25.1986 23.1517 25.5674 23.9814C25.3831 24.0367 25.1804 24.0922 24.9961 24.1475C17.5108 26.5627 13.5277 33.1628 13.1953 33.7168C10.8906 31.1539 9.47074 27.743 9.4707 24.0186V23.5762C10.0976 23.5946 17.1407 23.6863 24.3867 21.5107ZM35.2285 14.8359C37.2567 17.3067 38.4739 20.46 38.5107 23.8711C38.0309 23.7788 33.2376 22.8019 28.4072 23.4102C28.2966 23.1706 28.2043 22.9123 28.0938 22.6543C27.7987 21.9537 27.4666 21.234 27.1348 20.5518C32.4816 18.3761 34.9151 15.2416 35.2285 14.8359ZM17.8232 10.8721C18.2105 11.3885 20.7917 14.9842 23.207 19.2617C16.4219 21.0686 10.4296 21.0312 9.78418 21.0312C10.7246 16.5324 13.7669 12.7896 17.8232 10.8721ZM24 9.50781C27.6876 9.50781 31.0621 10.8903 33.625 13.1582C33.3669 13.527 31.1724 16.4585 26.0098 18.3945C23.6313 14.0248 20.9945 10.4477 20.5889 9.89453C21.6767 9.6364 22.82 9.50781 24 9.50781Z" fill="#A8FF36"/>
</g>
<defs>
<clipPath id="clip0_11_337">
<rect width="48" height="48" rx="12" fill="white"/>
</clipPath>
</defs>
</svg>
