<svg width="48" height="48" viewBox="0 0 48 48" fill="none" xmlns="http://www.w3.org/2000/svg">
<g clip-path="url(#clip0_11_333)">
<path d="M48 48H0V0H48V48ZM33.5938 18.5098C32.0383 18.4904 30.5165 18.9643 29.2471 19.8633C27.9776 20.7625 27.0253 22.0408 26.5273 23.5146C26.1568 24.5622 25.9709 25.6662 25.9775 26.7773C25.9618 27.9075 26.142 29.0318 26.5098 30.1006C26.8374 31.0568 27.3467 31.9412 28.0098 32.7041C28.6753 33.432 29.4921 34.0061 30.4023 34.3857C31.4087 34.7964 32.4874 35.0006 33.5742 34.9863C35.0971 35.0347 36.5977 34.6082 37.8672 33.7656C39.1905 32.7745 40.1243 31.3506 40.5068 29.7422H36.917C36.7176 30.3071 36.3372 30.7906 35.835 31.1172C35.2175 31.5645 34.4693 31.7966 33.707 31.7773C33.2264 31.8076 32.7446 31.7397 32.291 31.5781C31.8372 31.4165 31.4207 31.1644 31.0674 30.8369C30.3677 29.9863 30.0257 28.8968 30.1123 27.7988H40.8057C40.886 26.6303 40.7895 25.4564 40.5205 24.3164C40.2752 23.2547 39.8303 22.2494 39.21 21.3535C38.6036 20.4998 37.8117 19.7945 36.8936 19.291C35.8778 18.7548 34.7421 18.4858 33.5938 18.5098ZM17.1484 13H7.5V34.5811H17.4375C18.3423 34.5833 19.2432 34.4619 20.1152 34.2207C20.9564 33.9933 21.7491 33.613 22.4531 33.0996C23.1369 32.5805 23.6898 31.9087 24.0674 31.1377C24.4759 30.2538 24.6775 29.2879 24.6562 28.3145C24.6933 27.0936 24.3687 25.8893 23.7246 24.8516C23.0536 23.8721 22.0555 23.1636 20.9092 22.8545C21.7539 22.4581 22.476 21.8407 22.998 21.0674C23.4943 20.2485 23.7382 19.3015 23.7002 18.3447C23.7225 17.4734 23.5606 16.6074 23.2256 15.8027C22.9341 15.1483 22.476 14.5813 21.8965 14.1602C21.2691 13.7367 20.5667 13.4369 19.8271 13.2754C18.9487 13.076 18.0491 12.9833 17.1484 13ZM16.917 24.9736C17.7597 24.9263 18.5928 25.1743 19.2725 25.6748C19.5931 25.9772 19.8404 26.349 19.9951 26.7617C20.1498 27.1745 20.208 27.6179 20.165 28.0566C20.1885 28.5379 20.0972 29.0177 19.8994 29.457C19.7287 29.8017 19.4737 30.0983 19.1582 30.3184C18.8364 30.5383 18.4753 30.6942 18.0947 30.7783C17.6779 30.8754 17.2502 30.9218 16.8223 30.916H12.002V24.9736H16.917ZM33.4609 21.7686C33.883 21.7395 34.3069 21.8009 34.7031 21.9492C35.0994 22.0977 35.4596 22.3297 35.7588 22.6289L35.7617 22.6309C36.3184 23.3433 36.6473 24.2071 36.7051 25.1094H30.082C30.1063 24.7634 30.1697 24.4214 30.2715 24.0898C30.3845 23.6921 30.5709 23.3184 30.8213 22.9893C31.1037 22.6384 31.4521 22.3462 31.8467 22.1289C32.3445 21.8715 32.9009 21.7473 33.4609 21.7686ZM16.248 16.7061C16.6368 16.6988 17.0255 16.7317 17.4072 16.8057C17.759 16.863 18.0954 16.9927 18.3945 17.1865C18.6899 17.3626 18.9286 17.62 19.082 17.9277C19.2629 18.3143 19.3474 18.7396 19.3291 19.166C19.3613 19.5309 19.3079 19.8987 19.1729 20.2393C19.0377 20.5798 18.8245 20.8843 18.5508 21.1279C17.9793 21.546 17.2827 21.7576 16.5752 21.7285V21.748H12.002V16.7061H16.248ZM29.2275 14.4414V16.5625H37.5273V14.4414H29.2275Z" fill="#A8FF36"/>
</g>
<defs>
<clipPath id="clip0_11_333">
<rect width="48" height="48" rx="12" fill="white"/>
</clipPath>
</defs>
</svg>
