<svg width="53" height="53" viewBox="0 0 53 53" fill="none" xmlns="http://www.w3.org/2000/svg">
<rect x="0.720581" y="0.0307617" width="52.1295" height="52.1295" rx="26.0647" fill="#1B1B1B"/>
<path fill-rule="evenodd" clip-rule="evenodd" d="M28.4542 36.1085V35.6568C28.4579 34.3717 29.4988 33.3308 30.7839 33.3271H34.4687C35.7539 33.3308 36.7947 34.3717 36.7984 35.6568V36.1085C36.7984 36.4158 36.5494 36.6648 36.2421 36.6648H29.0105C28.7033 36.6648 28.4542 36.4158 28.4542 36.1085Z" stroke="#A8FF36" stroke-width="1.30324" stroke-linecap="round" stroke-linejoin="round"/>
<path fill-rule="evenodd" clip-rule="evenodd" d="M30.4846 28.9214C30.2149 27.9549 30.6255 26.9274 31.487 26.4129C32.3485 25.8984 33.4478 26.0242 34.1708 26.7201C34.8938 27.4159 35.0616 28.5095 34.5805 29.3901C34.0994 30.2707 33.0884 30.7204 32.1123 30.4879C31.3253 30.3004 30.7021 29.7006 30.4846 28.9214Z" stroke="#A8FF36" stroke-width="1.30324" stroke-linecap="round" stroke-linejoin="round"/>
<path fill-rule="evenodd" clip-rule="evenodd" d="M15.6598 33.8834V33.4317C15.6635 32.1466 16.7044 31.1057 17.9895 31.1021H21.6743C22.9594 31.1057 24.0003 32.1466 24.004 33.4317V33.8834C24.004 34.1907 23.7549 34.4397 23.4477 34.4397H16.2161C15.9088 34.4397 15.6598 34.1907 15.6598 33.8834Z" stroke="#A8FF36" stroke-width="1.30324" stroke-linecap="round" stroke-linejoin="round"/>
<path fill-rule="evenodd" clip-rule="evenodd" d="M17.6902 26.6963C17.4205 25.7298 17.831 24.7023 18.6926 24.1878C19.5541 23.6733 20.6534 23.7991 21.3764 24.495C22.0994 25.1908 22.2672 26.2845 21.7861 27.165C21.305 28.0456 20.294 28.4953 19.3179 28.2628C18.5309 28.0753 17.9076 27.4755 17.6902 26.6963Z" stroke="#A8FF36" stroke-width="1.30324" stroke-linecap="round" stroke-linejoin="round"/>
<path d="M32.3148 18.825C32.3362 18.804 32.3705 18.8042 32.3916 18.8255C32.4127 18.8467 32.4127 18.8811 32.3916 18.9023C32.3705 18.9236 32.3362 18.9238 32.3148 18.9028C32.304 18.8927 32.2979 18.8786 32.2979 18.8639C32.2979 18.8491 32.304 18.8351 32.3148 18.825" stroke="#A8FF36" stroke-width="1.30324" stroke-linecap="round" stroke-linejoin="round"/>
<path d="M29.4166 18.825C29.438 18.804 29.4723 18.8042 29.4934 18.8255C29.5145 18.8467 29.5145 18.8811 29.4934 18.9023C29.4723 18.9236 29.438 18.9238 29.4166 18.9028C29.4058 18.8927 29.3997 18.8786 29.3997 18.8639C29.3997 18.8491 29.4058 18.8351 29.4166 18.825" stroke="#A8FF36" stroke-width="1.30324" stroke-linecap="round" stroke-linejoin="round"/>
<path d="M26.5184 18.825C26.5398 18.804 26.5741 18.8042 26.5952 18.8255C26.6163 18.8467 26.6163 18.8811 26.5952 18.9023C26.5741 18.9236 26.5398 18.9238 26.5184 18.9028C26.5076 18.8927 26.5015 18.8786 26.5015 18.8639C26.5015 18.8491 26.5076 18.8351 26.5184 18.825" stroke="#A8FF36" stroke-width="1.30324" stroke-linecap="round" stroke-linejoin="round"/>
<path fill-rule="evenodd" clip-rule="evenodd" d="M26.7854 22.2016V23.8704C26.7848 24.0857 26.9085 24.282 27.103 24.3744C27.2975 24.4668 27.5278 24.4386 27.6943 24.3021L29.9773 22.443C30.1668 22.286 30.4054 22.2006 30.6515 22.2016H33.4607C34.6896 22.2016 35.6858 21.2054 35.6858 19.9765V17.7514C35.6858 16.5225 34.6896 15.5262 33.4607 15.5262H25.6728C24.4439 15.5262 23.4477 16.5225 23.4477 17.7514V19.9765C23.4477 21.2054 24.4439 22.2016 25.6728 22.2016H26.7854Z" stroke="#A8FF36" stroke-width="1.30324" stroke-linecap="round" stroke-linejoin="round"/>
</svg>
